<svg width="400" height="400" viewBox="0 0 400 400" fill="none" xmlns="http://www.w3.org/2000/svg">
  <defs>
    <linearGradient id="logoGradient" x1="0%" y1="0%" x2="100%" y2="100%">
      <stop offset="0%" style="stop-color:#4ade80;stop-opacity:1" />
      <stop offset="50%" style="stop-color:#059669;stop-opacity:1" />
      <stop offset="100%" style="stop-color:#064e3b;stop-opacity:1" />
    </linearGradient>
  </defs>
  
  <!-- Hexagonal frame -->
  <path d="M200 60 L320 120 L320 240 L200 300 L80 240 L80 120 Z" 
        fill="none" 
        stroke="url(#logoGradient)" 
        stroke-width="12" 
        stroke-linejoin="round"/>
  
  <!-- Inner flame/leaf design -->
  <path d="M200 100 
           C240 120, 260 160, 240 200
           C220 240, 180 250, 160 220
           C140 190, 150 150, 180 130
           C190 120, 200 100, 200 100 Z" 
        fill="url(#logoGradient)" 
        opacity="0.9"/>
  
  <!-- Secondary flame element -->
  <path d="M220 140
           C250 150, 270 180, 250 210
           C230 240, 200 235, 190 210
           C180 185, 190 155, 210 145
           C215 142, 220 140, 220 140 Z" 
        fill="url(#logoGradient)" 
        opacity="0.7"/>
  
  <!-- Accent highlight -->
  <circle cx="200" cy="180" r="8" fill="white" opacity="0.3"/>
</svg>
